<svg xmlns="http://www.w3.org/2000/svg" viewBox="0 0 1002 237" width="1002" height="237"><defs><linearGradient id="P" gradientUnits="userSpaceOnUse"></linearGradient><linearGradient id="g1" x2="1" href="#P" gradientTransform="matrix(841.7,0,0,75.786,159.4,199.19)"><stop stop-color="#365e93"></stop><stop offset="1" stop-color="#1e8b9d"></stop></linearGradient><linearGradient id="g2" x2="1" href="#P" gradientTransform="matrix(191.78,0,0,211.391,0,105.7)"><stop stop-color="#1e8b9d"></stop><stop offset=".31" stop-color="#277c9b"></stop><stop offset=".49" stop-color="#2d6e97"></stop><stop offset=".75" stop-color="#336294"></stop><stop offset="1" stop-color="#365e93"></stop></linearGradient></defs><style>.logo-a{fill:#444649}.logo-b{fill:url(#g1)}.logo-c{fill:url(#g2)}</style><path fill-rule="evenodd" class="logo-a" d="m220.9 176.6q-12 0-21.5-4.1-9.6-4.1-16.2-11.1-6.6-7-10.2-16.2-3.5-9.2-3.5-19.3c0-6.7 1.1-13.3 3.5-19.4q3.6-9.2 10.2-16.2 6.6-7 16.2-11.1 9.5-4.1 21.5-4.1 11.9 0 21.4 4.1 9.4 4.1 16.1 11.1 6.6 7 10.2 16.2 3.5 9.2 3.5 19.4c0 6.9-1.2 13.2-3.5 19.3q-3.6 9.2-10.1 16.2-6.6 7-16.1 11.1-9.6 4.1-21.5 4.1zm-25.6-50.7q0 6.6 1.9 11.9 2 5.3 5.4 9.3 3.5 3.9 8.2 6 4.6 2.2 10.1 2.2 5.4 0 10.1-2.2 4.6-2.1 8.1-6 3.5-4 5.4-9.4 2-5.4 2-12c0-4.3-0.7-8.1-2-11.7q-1.9-5.5-5.4-9.4-3.5-3.9-8.1-6.1-4.7-2.1-10.1-2.1-5.5 0-10.1 2.2-4.7 2.3-8.2 6.2-3.4 3.9-5.4 9.3-1.9 5.5-1.9 11.8zm151.6-27.5q-11.4 0.2-20.4 4.4-9 4.2-12.9 12.6v59.3h-25v-98h23v21q5-10.1 13.1-16.3 8.2-6.2 17.1-6.2 2.1 0 3.1 0.1 1 0.1 2 0.3c0 0 0 22.8 0 22.8zm166.2 76.3zm-25.1 0v-55q0-11.7-4.1-17.2-4.1-5.4-11.2-5.4c-4.7 0-9.5 1.9-13.8 5.7q-6.6 5.7-9.4 14.9v57h-25v-55q0-11.7-4-17.2-4.1-5.4-11.2-5.4c-4.7 0-9.5 1.9-13.9 5.6q-6.6 5.6-9.4 14.8v57.2h-25.1v-98h22.6v18.2q5.5-9.6 14.9-14.7 9.4-5.2 21.6-5.2c8.1 0 14.5 2 19 6q6.6 6 8.7 14.8 5.9-10.1 15.1-15.4 9.2-5.3 20.9-5.4 9 0 14.8 3.4 5.8 3.4 9 8.8 3.2 5.4 4.4 12.4 1.2 6.9 1.2 14v61.1zm73.5 1.9q-7.2 0-13.3-2.4-6.2-2.3-10.7-6.5-4.5-4.2-7-9.8-2.5-5.6-2.5-12.4c0-4.5 1-8.9 3.1-12.8q3.1-5.9 8.6-10 5.5-4.1 13.2-6.4 7.6-2.4 16.8-2.4 6.5 0 12.8 1.1 6.2 1.2 11.1 3.2v-5.6q0-9.7-5.5-15-5.5-5.2-16.4-5.2-7.8 0-15.3 2.8-7.5 2.8-15.3 8.2l-7.7-15.8q18.9-12.6 40.8-12.6c14.6 0 25 3.5 32.8 10.4q11.7 10.4 11.7 30v30.5q0 3.9 1.5 5.6 1.4 1.7 5.2 1.9v21.3q-3.6 0.7-6.6 1-3.1 0.3-5.4 0.3-7.1-0.2-10.8-3.3-3.8-3.1-4.7-8.3l-0.5-5.4q-6.6 8.6-15.9 13.1-9.4 4.5-20 4.5zm7.1-18.4q6.3 0 12-2.2 5.7-2.2 8.9-6 4.1-3.2 4.1-7.1v-11.2q-4.5-1.7-9.7-2.7-5.2-1-10.1-1-9.7 0-15.9 4.3-6.2 4.4-6.2 11.2 0 6.3 4.9 10.5 4.9 4.2 12 4.2zm73.8-120h25.1v104q0 11.4 10.2 11.4 2.1 0 4.8-0.8 2.7-0.7 5.1-1.7l3.4 20q-5 2.5-11.8 3.8-6.7 1.3-12.1 1.3-11.8 0-18.2-6.3-6.5-6.2-6.5-17.8zm86.4 138.3q-7.1 0-13.3-2.3-6.2-2.4-10.7-6.6-4.4-4.2-7-9.8-2.5-5.6-2.5-12.3c0-4.5 1-8.9 3.1-12.8q3.1-5.9 8.6-10 5.5-4.1 13.2-6.5 7.6-2.3 16.8-2.3 6.5 0 12.8 1.1 6.3 1.1 11.1 3.2v-5.6q0-9.8-5.5-15-5.5-5.2-16.3-5.2-7.9 0-15.4 2.8-7.5 2.8-15.3 8.2l-7.7-15.9q18.9-12.5 40.8-12.5c14.6 0 25 3.4 32.8 10.4q11.7 10.3 11.7 30v30.5q0 3.9 1.5 5.6 1.5 1.6 5.2 1.8v21.3q-3.5 0.8-6.6 1.1-3.1 0.3-5.4 0.3-7.1-0.2-10.8-3.3-3.7-3.1-4.7-8.3l-0.5-5.5q-6.6 8.6-15.9 13.1-9.4 4.5-20 4.5zm7.1-18.3q6.3 0 12-2.2 5.7-2.3 8.9-6 4.1-3.2 4.1-7.1v-11.2q-4.5-1.7-9.7-2.7-5.2-1.1-10.1-1.1-9.7 0-15.9 4.4-6.1 4.4-6.1 11.1 0 6.4 4.8 10.6 4.9 4.2 12 4.2zm129.7 18.3q-11.2 0-20-5-8.8-5.1-13.8-13.9v17.1h-21.9v-136.5h25.1v55.7q5.2-9 13.7-13.9 8.5-5 19.7-5 9.6 0 17.5 4.1 8 4.1 13.7 11.1 5.7 6.9 8.8 16.2 3 9.4 3 19.6c0 6.9-1.1 13.8-3.4 19.9q-3.5 9.1-9.6 15.9-6.2 6.9-14.6 10.8-8.4 3.9-18.2 3.9zm-6.9-21.3q6 0 11-2.3 4.9-2.4 8.6-6.3 3.6-3.9 5.6-9.1 1.9-5.3 1.9-11.3 0-6-1.8-11.4-1.9-5.4-5.4-9.5-3.4-4.1-8.1-6.5-4.7-2.5-10.3-2.5-8.4 0-15 5.6-6.7 5.5-10.2 13.5v23.4q1.3 3.7 3.8 6.7 2.5 3 5.7 5.1 3.2 2.2 6.9 3.4 3.8 1.2 7.3 1.2zm-720.6 1.2c-3.6-3.2-5.6-5.1-6.8-8.3-0.5-1.5 0.1-0.7-0.5-10.3 0 0-0.3-5.7-0.4-10q0 0 0-0.1c0-0.2 0-0.6 0-1.2 0-0.9 0-1.4-0.1-6.2-0.2-10.6-0.2-13.3-0.2-16.6 0.1-7.1 0.4-12.4 0.5-21.2 0.2-10.3 0-10 0.2-17.6 0.6-28.4 3.4-33.3 5.1-35.6 3.9-5.7 9.1-8.6 12.1-10.2 0.9-0.5 1.6-0.6 2.6-0.7 3.7-0.4 9.1 0.9 11.9 5.6 2.6 4.2 2.3 9.5-0.6 13.5q-0.1 0-0.2 0.1c-2.8 2.2-3.8 5.2-4.4 7.2-1.9 5.9-1.6 13.2-1.5 14.4-0.5 12.2-0.7 22.6-0.9 30.4-0.2 7.8-0.4 19.3-0.4 33.2 0.2 26.2 1.2 40.1-3.6 41.6-2.6 0.9-6.1-2.2-12.8-8z"></path><path class="logo-b" d="m164.9 189.5c3.6 1.7 8.5 4 14.6 6.5 5.6 2.2 10.4 3.9 17.1 6.2 14.7 4.9 22 7.3 26.7 8.4 14.5 3.3 26.1 2.8 36 2.5 12.2-0.5 21.9-2.1 31.3-3.7 3.3-0.6 3.8-0.7 20-4 17.4-3.5 26.1-5.2 29.8-5.9 16.2-2.9 24.4-4.4 34.8-4.9 6.9-0.4 12.2-0.3 22.5 0 10.7 0.2 16.3 0.4 24.2 1.4 2.5 0.3 10.3 1.4 20.2 4 6 1.6 14.2 3.7 23.9 8.1 9.5 4.3 10.1 6.1 21.2 11.1 2.7 1.3 9.2 4.2 16.3 6.4 15 4.7 27.7 4.8 35.8 4.7 0 0 19.6-0.1 40.7-6.1 4.7-1.4 14.4-4.5 25-8.8 0.5-0.2 0.5-0.2 0.8-0.3 0.5-0.2 11.2-4.4 24-7.3 36.1-8 70.3-1.4 70.3-1.4 23.5 4.6 32 11.7 47.9 15.9 10 2.7 18 2.9 20.3 3.1 9.2 0.9 17.7 1 28 0.5 25.7-1.2 47.7-5.4 51.9-6.2 34.7-6.8 61.7-16.5 74.5-21.3 47.9-18.3 77.6-38.4 78.4-37 0.7 1.1-19.9 16-44.9 29.2-31.9 16.9-58.7 24.6-74.8 29.1 0 0-41.5 11.7-90 14.4-6.8 0.4-20.1 0.6-34.5-1.9-4.3-0.8-7.7-1.6-10.8-2.5-12.7-3.8-21.4-7.7-25.2-9.4-15.8-7-31.5-7.9-45.7-8.7 0 0-22-1.3-40.9 2.8-1.7 0.4-3.3 0.8-3.3 0.8-11.6 2.9-19.6 6.3-21.8 7.2-7.9 3.4-34.5 12.7-64.5 14.3-8.7 0.5-19.5 1-33.3-1.9-2.1-0.5-8.8-2-25.9-8.9-23.6-9.5-23.1-11.6-35.8-15.9-16.7-5.8-30.7-6.8-44-7.8-17.4-1.3-30.9-0.2-36.3 0.4-11.3 1.1-19.8 2.9-32.5 5.5-13.2 2.8-15.6 3.8-28.2 6.7-24.4 5.6-39.6 9.1-59.8 9.1-16.8 0-28.6-2.5-31.2-3-6.9-1.5-13-3.4-19.4-5.4-5.6-1.7-11.9-3.7-19.8-6.9-5.1-2.1-11.7-5-19.1-8.9q2.8-5.1 5.6-10.2z"></path><path class="logo-c" d="m132.3 163.1c-6.3-6.7-10.7-12.6-13.1-16-3-4.3-6.5-9.7-14.3-24.2-6.7-12.5-11.5-22.1-12.9-24.9-10.3-20.4-15.6-30.6-20.6-40.1-14-26.6-26.4-41.1-38.8-50.6 0 0-7.8-5.4-19.4-7.1-2-0.3-4.7-0.5-7.3 0.9-3 1.5-5.4 4.6-5.8 8.3-0.6 4.5 2.1 9.1 6.6 11.3 8.3 3.1 13.3 7.8 15.8 10.5 0 0 10.4 11.2 11.2 27.8 0.1 0.7 0.1 2.7 0.2 4 0.1 3.9 0.3 8.6 0.4 13.9 0.1 4.6 0.2 8.4 0.2 11.8 0.1 9.8 0 17.5 0 21.5-0.3 21.1-1.2 51-1.3 53.9q-0.7 4.5-1.5 9c-3.6 4-4.5 9.3-2.4 12.8 2 3.3 6 4 7.2 4.2 4 0.8 7.7-0.5 9.9-2 5.8-4.1 6.7-12.3 7.1-16.7 3.6-39 5.4-58.6 4-74.4-0.3-3.7-1.2-14.1 0.3-14.4 1.1-0.2 2.3 4.6 7.7 13.7 1.3 2.1 2.1 3.3 4.2 6.9 2 3.3 3.4 5.9 4.2 7.4 5.1 10.1 10.3 18.6 14.9 25.5 7.7 11.7 14.4 19.8 18.7 24.9 4.1 4.9 7.9 9.4 12.5 14.1 0.9 0.9 3.2 3.2 5.5 5.3 8.4 7.6 16.5 12.3 21.1 14.9 16.6 9.3 34.5 14.4 41 16.1-6.6-5.6-10.5-10.8-9.3-12.6 1.1-1.7 6.8-0.6 13.5 2.2q-7-2.8-14.5-6.2-8.9-4.1-16.7-8.3c-4.2-2.6-9.2-6-14.5-10.4-1.9-1.5-7.4-6.2-13.8-13z"></path></svg>