<?xml version="1.0" encoding="UTF-8"?>
<svg id="Layer_1" xmlns="http://www.w3.org/2000/svg" version="1.1" viewBox="0 0 127.6 58.9">
  <!-- Generator: Adobe Illustrator 29.7.1, SVG Export Plug-In . SVG Version: 2.1.1 Build 8)  -->
  <defs>
    <style>
      .st0 {
        fill: #f58220;
      }

      .st1 {
        fill: #231f20;
      }
    </style>
  </defs>
  <path class="st1" d="M50.9,42.9h-3.5l-4,10.6c-.2-3.2-3.5-3.9-4.6-4.2-3.9-1-4.6-1.2-4.6-2.4s1.3-1.8,2.4-1.8c1.6,0,3,.5,3.1,2.4h3.3c0-3.6-3-5-6.2-5s-5.1,1.2-5.7,3.6c-.7-2.6-3.3-3.6-6.1-3.6s-5.8,1.5-5.8,4.7,2.3,3.8,4.6,4.4c2.3.6,4.6.9,4.6,2.6s-1.8,1.9-3,1.9c-1.8,0-3.4-.8-3.4-2.9h-3.2l-3.9-10.4h-3.5l-5.9,15.6h3.5l1.2-3.5h5.8l1.2,3.5h3.6l-.5-1.4c1.3,1.2,3.1,1.7,5.1,1.7,3,0,5-1.1,5.9-2.7,1.1,1.8,3.5,2.7,5.9,2.7s4-.6,5.1-1.6l-.5,1.3h3.5l1.2-3.5h5.8l1.2,3.5h3.6l-5.8-15.6ZM10.9,52.5l2-5.7h0l2,5.7h-4ZM37,56.2c-1.8,0-3.4-.8-3.4-2.9h-2c-.3-3.1-3.5-3.7-4.6-4-3.9-1-4.6-1.2-4.6-2.4s1.3-1.8,2.4-1.8c1.6,0,3,.5,3.1,2.4h3c.2,2.7,2.4,3.5,4.6,4.1,2.3.6,4.6.9,4.6,2.6s-1.8,1.9-3,1.9ZM47,52.5l2-5.7h0l2,5.7h-4Z"/>
  <g>
    <path class="st1" d="M83.9,50c1.4-.7,2.1-1.7,2.1-3.2,0-2.9-2-3.9-5-3.9h-7.3v13.8l-5.1-13.8h-3.5l-5.9,15.6h3.5l1.2-3.5h5.8l1.2,3.5h10.4c2.8,0,5.5-1.4,5.5-4.5s-1-3.4-2.9-3.9ZM64.8,52.5l2-5.7h0l2,5.7h-4ZM77.2,45.6h3.2c1.2,0,2.4.3,2.4,1.8s-.9,1.9-2.1,1.9h-3.5v-3.6ZM80.8,55.8h-3.7v-4.3h3.7c1.5,0,2.5.6,2.5,2.2s-1.2,2-2.5,2Z"/>
    <path class="st1" d="M102.5,42.5c-4.8,0-7.7,3.6-7.7,8.2s.5,3.5,1.3,4.8h-5.7v-12.7h-3.4v15.6h10v-1.7c1.3,1.3,3.1,2.1,5.4,2.1,4.8,0,7.7-3.6,7.7-8.1s-2.8-8.2-7.7-8.2ZM102.5,56c-3.1,0-4.2-2.6-4.2-5.2s1.2-5.3,4.2-5.3,4.2,2.6,4.2,5.3-1.2,5.2-4.2,5.2Z"/>
    <polygon class="st1" points="118.6 42.9 115 49.1 111.4 42.9 107.5 42.9 113.2 52.4 113.2 58.5 116.7 58.5 116.7 52.5 122.4 42.9 118.6 42.9"/>
  </g>
  <polygon class="st1" points="127.6 37.5 126.5 37.5 126.5 33.2 0 33.2 0 27.8 1.1 27.8 1.1 32.1 127.6 32.1 127.6 37.5"/>
  <g>
    <path class="st0" d="M20.3,22.5V6.2h3.5s0,3.8,0,3.8c3.5-3.6,7.9-3.8,8.8-3.8h0c5.8,0,8.9,3.4,10.6,5.8-.4,0-4.3,0-4.4,0-2.3-2.1-4.3-2.2-6.1-2.2-3.4,0-5.8,1.6-7.1,3.4h0c-1.4,1.8-1.8,3.9-1.8,4.8h0v4.7h-3.3Z"/>
    <path class="st0" d="M89.8,22.5l-12.2-7.6h-3.6v7.5h-3.4V0h3.4v11.6h9.4c2.4,0,5.6-1,7.2-2.6h0c1-1.1,1.1-2,1.1-2.6h3.3c0,.7,0,2.5-1.1,3.9-1.5,1.9-3,2.7-4.8,3.4h0c-2.2.8-4.6,1.3-5.3,1.3.2.1,11.6,7.6,11.6,7.6h-5.7Z"/>
    <path class="st0" d="M18.1,22.5c-8.9,0-12.6-4.9-12.6-8h0V0h3.5v6.1h7.2v3.5h-7.2v4.2c0,.8,0,1.2.2,1.4h0c.2.4.4.9,1,1.5h0c1.1,1.1,3.4,2.3,8,2.5h.2v3.4h-.2Z"/>
    <path class="st0" d="M56.2,6.2c8.3,0,12.2,5,12.3,8.1h0v8.3h-24.6s0-.4,0-.9h0c0-1.1.2-3.2,1.9-5.1h0c1.7-1.9,4.8-3.6,10.5-3.7h0c5.8,0,8,1.7,8.8,2.1h0c0-2-1.2-3.2-2.7-4h0c-1.5-.8-4.2-1.4-6.1-1.4-6.7,0-8.3,2.4-8.3,2.4h-4.1c.7-1.4,2.6-3.9,7-5.1h0c2.6-.7,5.4-.7,5.4-.7M65,19.1c-2.5-2.8-6.2-3-8.7-3s-5.5.2-8.1,3h16.8Z"/>
    <path class="st0" d="M109.9,6.2c8.3,0,12.2,5,12.3,8.1h0v8.3h-24.6s0-.4,0-.9h0c0-1.1.2-3.2,1.9-5.1h0c1.7-1.9,4.8-3.6,10.5-3.7h0c5.8,0,8,1.7,8.8,2.1h0c0-2-1.2-3.2-2.7-4h0c-1.5-.8-4.2-1.4-6.1-1.4-6.7,0-8.3,2.4-8.3,2.4h-4.1c.7-1.4,2.6-3.9,7-5.1h0c2.6-.7,5.4-.7,5.4-.7M118.6,19.1c-2.5-2.8-6.2-3-8.7-3s-5.5.2-8.1,3h16.8Z"/>
  </g>
</svg>